#!OML:ASF X:\für Bonn\!DataBase\2005_08_11_Bastian_Final\c3d\Bastian.ASF
:FULLY-SPECIFIED
:DEGREES
340
root 19.3245 17.3905 -3.68577 539.284 -112.343 -182.991
lowerback 30.4295 3.56966 -0.584861
upperback 17.2 2.81349 -0.739738
thorax 2.90866 0.808972 -1.26084
lowerneck -8.23617 -10.0986 1.40143
upperneck -19.5593 -12.4381 17.3461
head -3.42904 -7.51871 5.12718
rclavicle 4.7112e-014 1.33186e-014
rhumerus 3.30029 40.4211 -75.4652
rradius 29.9468
rwrist -10.5583
rhand -31.765 7.70454
rfingers 7.12502
rthumb -5.02185 -22.216
lclavicle 4.7112e-014 1.33186e-014
lhumerus -5.49331 -16.9162 83.8051
lradius 23.8866
lwrist 25.3244
lhand -13.7759 -9.27645
lfingers 7.12502
lthumb 12.3452 20.3391
rfemur -20.0895 -2.06486 22.5568
rtibia 60.1325
rfoot -17.5244 -7.50213
rtoes -3.64428
lfemur -5.24714 1.85233 -20.0269
ltibia 29.5682
lfoot -12.1519 -11.4999
ltoes -3.98111
341
root 19.2571 17.3953 -3.64688 539.377 -112.03 -183.259
lowerback 29.9325 3.43453 -0.582506
upperback 17.0786 2.67751 -0.771448
thorax 2.97685 0.749719 -1.24662
lowerneck -8.28737 -10.0132 1.30762
upperneck -19.3238 -12.3492 17.2894
head -3.35224 -7.44504 5.10933
rclavicle 3.97569e-014 -4.53229e-014
rhumerus 2.39781 40.1302 -76.0319
rradius 29.8294
rwrist -10.3463
rhand -31.9367 7.82871
rfingers 7.12502
rthumb -5.18761 -22.0878
lclavicle 3.97569e-014 -4.53229e-014
lhumerus -5.32728 -16.8075 83.7273
lradius 23.9236
lwrist 25.215
lhand -13.7816 -9.00964
lfingers 7.12502
lthumb 12.3397 20.6062
rfemur -20.627 -1.86224 22.63
rtibia 60.7696
rfoot -17.6711 -7.1045
rtoes -3.56183
lfemur -4.54424 2.08904 -19.9301
ltibia 29.1864
lfoot -12.3259 -11.4574
ltoes -4.03787
342
root 19.1894 17.3972 -3.60957 539.453 -111.735 -183.518
lowerback 29.4628 3.30803 -0.622626
upperback 16.9592 2.54138 -0.760893
thorax 3.03314 0.684075 -1.16384
lowerneck -8.39029 -9.94422 1.1994
upperneck -19.0309 -12.2971 17.1571
head -3.25209 -7.37901 5.06407
rclavicle -3.45885e-014 5.1684e-014
rhumerus 1.5252 39.8507 -76.5064
rradius 29.7228
rwrist -10.112
rhand -32.1025 7.95244
rfingers 7.12502
rthumb -5.34768 -21.9601
lclavicle -3.45885e-014 5.1684e-014
lhumerus -5.17079 -16.7371 83.7078
lradius 23.9691
lwrist 25.1623
lhand -13.8981 -8.78053
lfingers 7.12502
lthumb 12.2274 20.8421
rfemur -21.1263 -1.71688 22.6978
rtibia 61.2881
rfoot -17.9141 -6.79376
rtoes -3.51781
lfemur -3.8557 2.36631 -19.825
ltibia 28.8356
lfoot -12.4542 -11.4686
ltoes -3.79548
343
root 19.1206 17.3982 -3.57207 539.552 -111.432 -183.785
lowerback 28.9859 3.18157 -0.609268
upperback 16.8377 2.41707 -0.788048
thorax 3.09732 0.631296 -1.15674
lowerneck -8.52921 -9.87474 1.22641
upperneck -18.7032 -12.2605 16.969
head -3.14964 -7.32356 4.97873
rclavicle 5.54609e-014 -4.41302e-014
rhumerus 0.620692 39.5951 -77.0089
rradius 29.6566
rwrist -9.98814
rhand -32.368 8.05613
rfingers 7.12502
rthumb -5.60403 -21.8498
lclavicle 5.54609e-014 -4.41302e-014
lhumerus -5.01537 -16.8084 83.6139
lradius 24.0589
lwrist 25.1483
lhand -14.0193 -8.59474
lfingers 7.12502
lthumb 12.1105 21.0348
rfemur -21.621 -1.6017 22.7679
rtibia 61.6891
rfoot -18.1905 -6.57947
rtoes -3.66572
lfemur -3.17641 2.62368 -19.7256
ltibia 28.4992
lfoot -12.6777 -11.4478
ltoes -4.19601
344
root 19.051 17.396 -3.53487 539.671 -111.125 -184.06
lowerback 28.5098 3.04418 -0.596188
upperback 16.7174 2.27793 -0.808966
thorax 3.16377 0.570487 -1.14009
lowerneck -8.6896 -9.82425 1.1697
upperneck -18.3422 -12.2475 16.7971
head -3.02423 -7.27266 4.90718
rclavicle -6.36111e-015 3.02153e-014
rhumerus -0.260301 39.254 -77.5174
rradius 29.5535
rwrist -9.77087
rhand -32.6615 8.24781
rfingers 7.12502
rthumb -5.88743 -21.6504
lclavicle -6.36111e-015 3.02153e-014
lhumerus -4.85563 -16.8651 83.5237
lradius 24.156
lwrist 25.2405
lhand -14.1602 -8.47521
lfingers 7.12502
lthumb 11.9747 21.1623
rfemur -22.1055 -1.4882 22.8319
rtibia 61.9666
rfoot -18.4578 -6.41595
rtoes -3.69078
lfemur -2.49915 2.83207 -19.6331
ltibia 28.1477
lfoot -12.8484 -11.3659
ltoes -4.15692
345
root 18.9812 17.3964 -3.49759 539.749 -110.843 -184.303
lowerback 28.0642 2.91303 -0.568486
upperback 16.5863 2.14979 -0.823032
thorax 3.20639 0.516448 -1.1289
lowerneck -8.80017 -9.78944 1.11578
upperneck -17.9965 -12.2482 16.6347
head -2.91014 -7.23169 4.84178
rclavicle -1.74931e-014 4.01545e-014
rhumerus -1.20305 38.852 -78.0233
rradius 29.4735
rwrist -9.56406
rhand -32.9284 8.4572
rfingers 7.12502
rthumb -6.14508 -21.4337
lclavicle -1.74931e-014 4.01545e-014
lhumerus -4.71879 -17.0762 83.4534
lradius 24.2643
lwrist 25.4253
lhand -14.3461 -8.44327
lfingers 7.12502
lthumb 11.7954 21.2046
rfemur -22.6115 -1.42151 22.8669
rtibia 62.1177
rfoot -18.6215 -6.26725
rtoes -3.88449
lfemur -1.79012 2.93678 -19.5654
ltibia 27.7597
lfoot -13.0405 -11.2331
ltoes -4.17551
346
root 18.9088 17.3978 -3.46072 539.989 -110.519 -184.686
lowerback 27.5794 2.78564 -0.545564
upperback 16.4594 2.02526 -0.812345
thorax 3.27218 0.462155 -1.0889
lowerneck -8.95638 -9.74346 1.03275
upperneck -17.6077 -12.239 16.4568
head -2.77567 -7.17972 4.77215
rclavicle -5.56597e-014 1.31198e-014
rhumerus -2.12652 38.5786 -78.4491
rradius 29.4569
rwrist -9.41156
rhand -33.1072 8.60636
rfingers 7.12502
rthumb -6.31768 -21.2794
lclavicle -5.56597e-014 1.31198e-014
lhumerus -4.58941 -17.0705 83.4095
lradius 24.39
lwrist 25.5391
lhand -14.4006 -8.37299
lfingers 7.12502
lthumb 11.7429 21.2779
rfemur -23.1664 -1.29492 22.9532
rtibia 62.1461
rfoot -18.6913 -6.11551
rtoes -3.79797
lfemur -1.06986 3.16427 -19.4355
ltibia 27.3075
lfoot -13.1935 -11.1318
ltoes -4.42368
347
root 18.8356 17.4003 -3.42549 540.13 -110.231 -184.963
lowerback 27.1138 2.65657 -0.523566
upperback 16.3258 1.89803 -0.816422
thorax 3.32389 0.407866 -1.06553
lowerneck -9.04845 -9.70295 0.984581
upperneck -17.259 -12.2328 16.2421
head -2.6692 -7.1348 4.69278
rclavicle 3.89618e-014 5.1684e-015
rhumerus -3.07541 38.1985 -78.9121
rradius 29.4503
rwrist -9.26918
rhand -33.1482 8.60079
rfingers 7.12502
rthumb -6.35731 -21.2838
lclavicle 3.89618e-014 5.1684e-015
lhumerus -4.5264 -17.4324 83.3418
lradius 24.703
lwrist 26.0504
lhand -14.5883 -8.16634
lfingers 7.12502
lthumb 11.5618 21.4947
rfemur -23.7103 -1.25802 23.0047
rtibia 62.0793
rfoot -18.7248 -6.02129
rtoes -3.76952
lfemur -0.326985 3.30184 -19.3526
ltibia 26.7864
lfoot -13.3119 -10.9875
ltoes -4.68037
348
root 18.7602 17.4039 -3.38985 540.193 -109.921 -185.171
lowerback 26.6424 2.55127 -0.53532
upperback 16.2211 1.78997 -0.80993
thorax 3.41279 0.358722 -1.01694
lowerneck -9.15818 -9.64307 0.899368
upperneck -16.9542 -12.1914 16.0714
head -2.56961 -7.07559 4.6348
rclavicle -5.12864e-014 5.04913e-014
rhumerus -3.95671 37.8411 -79.3053
rradius 29.4296
rwrist -9.15485
rhand -33.1503 8.50268
rfingers 7.12502
rthumb -6.35932 -21.3819
lclavicle -5.12864e-014 5.04913e-014
lhumerus -4.41224 -17.7375 83.2912
lradius 25.0146
lwrist 26.5055
lhand -14.708 -7.93904
lfingers 7.12502
lthumb 11.4464 21.7285
rfemur -24.2373 -1.28856 23.0161
rtibia 61.9247
rfoot -18.7003 -5.80362
rtoes -3.49127
lfemur 0.478482 3.41242 -19.3072
ltibia 26.2027
lfoot -13.4266 -10.8205
ltoes -4.68091
349
root 18.6851 17.4056 -3.35484 540.348 -109.634 -185.46
lowerback 26.1865 2.42093 -0.518486
upperback 16.0853 1.6585 -0.799768
thorax 3.46053 0.301079 -0.976704
lowerneck -9.15165 -9.57506 0.843576
upperneck -16.6782 -12.1324 15.8588
head -2.50388 -7.01305 4.56886
rclavicle -6.71892e-014 4.77083e-014
rhumerus -4.89044 37.5557 -79.721
rradius 29.4753
rwrist -9.10567
rhand -33.0485 8.39678
rfingers 7.12502
rthumb -6.26106 -21.4907
lclavicle -6.71892e-014 4.77083e-014
lhumerus -4.35797 -17.7723 83.2766
lradius 25.3063
lwrist 26.7227
lhand -14.7907 -7.74777
lfingers 7.12502
lthumb 11.3666 21.9242
rfemur -24.775 -1.40551 23.0658
rtibia 61.6903
rfoot -18.6673 -5.61709
rtoes -3.56193
lfemur 1.28273 3.57344 -19.2219
ltibia 25.5791
lfoot -13.5004 -10.6764
ltoes -5.08009
350
root 18.608 17.4094 -3.32111 540.448 -109.331 -185.704
lowerback 25.7365 2.31535 -0.511488
upperback 15.9708 1.553 -0.793367
thorax 3.53256 0.255002 -0.941998
lowerneck -9.16416 -9.51609 0.773223
upperneck -16.429 -12.0801 15.6909
head -2.4382 -6.95682 4.51855
rclavicle 2.14687e-014 -2.94201e-014
rhumerus -5.75876 37.1146 -80.1411
rradius 29.4588
rwrist -8.99441
rhand -32.9557 8.35234
rfingers 7.12502
rthumb -6.17149 -21.5378
lclavicle 2.14687e-014 -2.94201e-014
lhumerus -4.20992 -17.3944 83.3209
lradius 25.4574
lwrist 26.5782
lhand -14.8158 -7.61853
lfingers 7.12502
lthumb 11.3424 22.0547
rfemur -25.2886 -1.57974 23.1108
rtibia 61.3824
rfoot -18.5653 -5.37241
rtoes -3.76466
lfemur 2.12536 3.73728 -19.1491
ltibia 24.9037
lfoot -13.525 -10.5295
ltoes -5.10044
